<svg id="Capa_2" data-name="Capa 2" xmlns="http://www.w3.org/2000/svg" viewBox="0 0 84 116"><defs><style>.cls-1,.cls-2{fill:#962224;}.cls-1,.cls-4{fill-rule:evenodd;}.cls-3,.cls-4{fill:#fff;}.cls-5{fill:#b65334;}.cls-6{fill:#bdb793;}</style></defs><path class="cls-1" d="M78.58,111c1.08.65,1.62,1.35,1.62,2.09a1.45,1.45,0,0,1-.54,1.15,2.13,2.13,0,0,1-1.36.46A4.12,4.12,0,0,1,75,113v2.21a5.42,5.42,0,0,0,3.29,1.09,3.63,3.63,0,0,0,2.55-.93,3.06,3.06,0,0,0,1-2.37,3.88,3.88,0,0,0-2.25-3.36l-1.34-.78a4.64,4.64,0,0,1-1.3-1,1.56,1.56,0,0,1-.41-1,1.2,1.2,0,0,1,.54-1,2.4,2.4,0,0,1,1.41-.41,4.07,4.07,0,0,1,2.84,1.25v-2a4.88,4.88,0,0,0-2.81-.84,3.77,3.77,0,0,0-2.59.91,3,3,0,0,0-1,2.33,2.91,2.91,0,0,0,.54,1.69,5.94,5.94,0,0,0,1.78,1.48l1.33.79Z"/><polygon class="cls-1" points="66.67 104.06 66.74 116.17 73.81 116.13 73.81 114.59 68.47 114.62 68.45 110.85 73.45 110.82 73.44 109.27 68.45 109.29 68.43 105.59 73.59 105.57 73.58 104.02 66.67 104.06 66.67 104.06"/><polygon class="cls-1" points="62.49 104.08 62.54 113.49 54.27 104.12 52.86 104.13 52.92 116.26 54.56 116.25 54.51 106.92 62.71 116.21 64.21 116.2 64.15 104.07 62.49 104.08 62.49 104.08"/><path class="cls-2" d="M46.09,104.1H44.86l-5.18,12.23h1.79l1.52-3.6,5.18,0,1.64,3.59H51.6Zm-2.43,7.07,1.8-4.4,2,4.38Z"/><path class="cls-2" d="M41,107.63a3.19,3.19,0,0,0-1-2.51,4,4,0,0,0-2.79-.92l-3.86,0,.06,12.14h1.76l0-5.26h1.29a7.75,7.75,0,0,0,2.65-.38,3.06,3.06,0,0,0,1.45-1.2A3.33,3.33,0,0,0,41,107.63ZM38.6,109a2.44,2.44,0,0,1-1.64.51H35.05l0-3.8h1.81c1.54,0,2.32.61,2.33,1.86A1.8,1.8,0,0,1,38.6,109Z"/><rect class="cls-2" width="84" height="101"/><path class="cls-3" d="M80.81,94.32a7,7,0,0,1-4.34,1.74A4.26,4.26,0,0,1,73,94.49a5.74,5.74,0,0,1-1.31-3.74,8.41,8.41,0,0,1,.06-.89l9.82-.06a10.39,10.39,0,0,0,.06-1,6.36,6.36,0,0,0-1.37-4.27,4.53,4.53,0,0,0-3.61-1.57,5.79,5.79,0,0,0-4.57,2.27,8.23,8.23,0,0,0-1.84,5.51A6.81,6.81,0,0,0,72,95.52a5.8,5.8,0,0,0,4.47,1.8,7.15,7.15,0,0,0,4.37-1.56Zm-7.14-8.86a4.38,4.38,0,0,1,3-1.28,3.35,3.35,0,0,1,2.72,1.18,4.56,4.56,0,0,1,.93,3.25l-8.3,0A5.34,5.34,0,0,1,73.67,85.46Z"/><path class="cls-4" d="M70.36,83.22l-3.29,0,.4-2.52c.39-2.54,1.77-3.81,4.16-3.82a7,7,0,0,1,3.2.84L75,76.59a7.62,7.62,0,0,0-3.44-.84,5.12,5.12,0,0,0-3.78,1.51,7.12,7.12,0,0,0-1.81,4.17l-.23,1.81-2.79,0-.16,1h2.8l-2.56,19h1.36l2.56-19,3.29,0,.15-1Z"/><polygon class="cls-4" points="60.7 83.27 59.33 83.28 57.44 97.15 58.81 97.14 60.7 83.27 60.7 83.27"/><polygon class="cls-4" points="61.47 77.28 60.1 77.29 59.77 79.58 61.13 79.58 61.47 77.28 61.47 77.28 61.47 77.28"/><polygon class="cls-4" points="56.13 76.11 54.77 76.11 51.89 97.18 53.27 97.17 56.13 76.11 56.13 76.11"/><polygon class="cls-4" points="46.91 80.52 41.39 87.41 35.78 80.58 33.52 80.59 33.61 97.28 36.01 97.26 35.94 84.28 41.18 90.7 41.63 90.7 46.76 84.22 46.82 97.21 49.23 97.19 49.15 80.51 46.91 80.52 46.91 80.52"/><path class="cls-3" d="M25.45,80.54h-1.7L16.64,97.36H19.1l2.09-4.95,7.13,0,2.26,4.93H33Zm-3.34,9.72,2.48-6.05,2.73,6Z"/><path class="cls-3" d="M17.08,92.81A3.88,3.88,0,0,0,16,90.05a5.15,5.15,0,0,0-2.93-1.49A3.64,3.64,0,0,0,15.59,85,4.07,4.07,0,0,0,15,82.78a4.13,4.13,0,0,0-1.79-1.52,7.72,7.72,0,0,0-3.24-.55l-4.39,0,.08,16.68,5.68,0a7,7,0,0,0,3.19-.65,4.8,4.8,0,0,0,1.94-1.64A4.08,4.08,0,0,0,17.08,92.81ZM8,82.85H10c2.05,0,3.08.78,3.09,2.38a2.44,2.44,0,0,1-.81,1.9,4.1,4.1,0,0,1-2.72.74H8ZM14.17,94a2.5,2.5,0,0,1-1.12,1,7.94,7.94,0,0,1-2.66.31H8L8,90h2.24a8.08,8.08,0,0,1,2.62.3,2.51,2.51,0,0,1,1.27.94,2.29,2.29,0,0,1,.47,1.39A2.45,2.45,0,0,1,14.17,94Z"/><path class="cls-5" d="M84,71.5a364.19,364.19,0,0,0-84,3v-15a298.28,298.28,0,0,0,41,2,298.42,298.42,0,0,0,43-4Z"/><path class="cls-6" d="M84,45.5c-12.82-.61-26.89-.72-42,0s-29.24,2.17-42,4v10a296,296,0,0,0,42,2,294.8,294.8,0,0,0,42-4Z"/><path class="cls-5" d="M84,38.5c-3.94-.21-9.83-.46-17-.5-13.63-.08-21.9.63-31,1a342.57,342.57,0,0,1-36-.5v11c12.76-1.83,26.81-3.28,42-4s29.18-.61,42,0Z"/><path class="cls-5" d="M37.72,17A161.53,161.53,0,0,0,0,20.5v4c8.25-.25,15.27-.41,20.62-.5,31.07-.55,40.71.2,51.31,3A103.22,103.22,0,0,1,84,31V25A161.67,161.67,0,0,0,37.72,17Z"/><path class="cls-6" d="M39.76,23.5c-16,.16-29.39.58-39.76,1v9c15-.72,28.92-1.36,42.75-2,6.26-.29,18.85-2.28,35.78-1,2.3.17,4.2.36,5.47.5a40.32,40.32,0,0,0-3.89-1.89s-2.2-.85-4.56-1.61C63,23.45,52.8,23.37,39.76,23.5Z"/></svg>